# xmcd CD database file
#
# Track frame offsets:
#	182
#	18605
#	37037
#	56790
#	69347
#	83717
#	96922
#	116020
#	132725
#	143900
#	155090
#	169297
#	180307
#	192787
#
# Disc length: 2725 seconds
#
# Revision: 0
# Processed by: cddbd v1.5PL3 Copyright (c) Steve Scherf et al.
# Submitted via: CDex 1.50beta10
#
DISCID=ca0aa30e
DTITLE=Z. Z. Hill - Turn Back The Hands of Time
DYEAR=1996
DGENRE=Blues
TTITLE0=Ain't To Proud To Beg
TTITLE1=Turn Back The Hands Of Time
TTITLE2=My Girl
TTITLE3=It Can Be Fixed
TTITLE4=Nine Pound Steel
TTITLE5=Don't Make Me Pay For His Mistakes
TTITLE6=Mr. Nobody Somebody
TTITLE7=Sweet Woman
TTITLE8=One Way Love Affair
TTITLE9=Think People
TTITLE10=You Better Take Time
TTITLE11=Five Will Get You Ten
TTITLE12=The Right To Love
TTITLE13=You Were Wrong
EXTD=YEAR: 1996
EXTT0=
EXTT1=
EXTT2=
EXTT3=
EXTT4=
EXTT5=
EXTT6=
EXTT7=
EXTT8=
EXTT9=
EXTT10=
EXTT11=
EXTT12=
EXTT13=
PLAYORDER=
